<?xml version="1.0" encoding="utf-8"?>
<!-- Generator: Adobe Illustrator 24.1.0, SVG Export Plug-In . SVG Version: 6.00 Build 0)  -->
<svg height="20px" version="1.1" id="Layer_1" xmlns="http://www.w3.org/2000/svg" xmlns:xlink="http://www.w3.org/1999/xlink" x="0px" y="0px"
	 viewBox="0 0 111.3 20" style="enable-background:new 0 0 111.3 20;" xml:space="preserve">
<style type="text/css">
	.st0{clip-path:url(#SVGID_2_);}
	.st1{fill:#555555;}
	.st2{fill:#007EC6;}
	.st3{fill:url(#SVGID_3_);}
	.st4{fill:none;}
	.st5{enable-background:new    ;}
	.st6{fill:#010101;}
	.st7{font-family:'Verdana';}
	.st8{font-size:11px;}
	.st9{fill:#FFFFFF;}
	.st10{fill:#48BBEB;}
</style>
<g>
	<defs>
		<path id="SVGID_1_" d="M2.9,0h105.6c1.6,0,2.9,1.3,2.9,3v14c0,1.7-1.3,3-2.9,3H2.9C1.3,20,0,18.7,0,17V3C0,1.3,1.3,0,2.9,0z"/>
	</defs>
	<clipPath id="SVGID_2_">
		<use xlink:href="#SVGID_1_"  style="overflow:visible;"/>
	</clipPath>
	<g class="st0">
		<path class="st1" d="M0,0h18.1v20H0V0z"/>
		<path class="st2" d="M18.1,0h93.3v20H18.1V0z"/>

			<linearGradient id="SVGID_3_" gradientUnits="userSpaceOnUse" x1="-244.4131" y1="387.75" x2="-244.4131" y2="386.75" gradientTransform="matrix(117 0 0 -20 28652 7755)">
			<stop  offset="0" style="stop-color:#BBBBBB;stop-opacity:0.1"/>
			<stop  offset="1" style="stop-color:#000000;stop-opacity:0.1"/>
		</linearGradient>
		<path class="st3" d="M0,0h111.3v20H0V0z"/>
	</g>
</g>
<g>
	<path class="st4" d="z"/>
	<path class="st4" d="z"/>
	<g class="st5">
		<text transform="matrix(1 0 0 1 22.7129 15)" class="st6 st7 st8">Open in Github</text>
	</g>
	<text transform="matrix(1 0 0 1 22.7129 14)" class="st9 st7 st8">Open in Github</text>
	<g>
	</g>
</g>
</svg>
